{"title":"Blondie.2012.BRRip.XviD.AC3.HORiZON-ArtSubs","uid":8316659,"size":1422909627,"categoryP":"video","categoryS":"movies","magnet":"?xt=urn:btih:e4fb4f175d250446393241aacd80ef8e96358082&amp;dn=Blondie.2012.BRRip.XviD.AC3.HORiZON-ArtSubs&amp;tr=udp%3A%2F%2Ftracker.openbittorrent.com%3A80&amp;tr=udp%3A%2F%2Fopen.demonii.com%3A1337&amp;tr=udp%3A%2F%2Ftracker.coppersurfer.tk%3A6969&amp;tr=udp%3A%2F%2Fexodus.desync.com%3A6969","seeders":1,"leechers":0,"uploader":"lletaif","files":2,"time":1364603629,"description":"Title:\nBlondie\n\nCountry:\nSweden, 2012\n\nLanguage:\nSwedish\n\nSubtitle:\nEnglish\n\nDirector:\n\nJesper Ganslandt\n\nWriter:\nJesper Ganslandt\n\nStars:\nCarolina Gynning, Helena af Sandeberg, Alexandra Dahlstrom\n\nSynopsis:\nThree sisters, all adrift and in crisis, reunite at their childhood home as their domineering mother arranges her big birthday party. The festivities soon come to an end, repressed conflicts rise to the surface. Old wounds are opened and a new family is born. \n\nImdb: &lt;a href=&quot;\nhttp://www.imdb.com/title/tt2287661&quot; rel=&quot;nofollow&quot; target=&quot;_NEW&quot;&gt;\nhttp://www.imdb.com/title/tt2287661&lt;/a&gt;\n\nTrailer: &lt;a href=&quot;\nhttp://www.moviezine.se/film/blondie&quot; rel=&quot;nofollow&quot; target=&quot;_NEW&quot;&gt;\nhttp://www.moviezine.se/film/blondie&lt;/a&gt;\n\n\nMedia Info:\n\nGeneral\nComplete name                            : Blondie.2012.BRRip.XviD.AC3.HORiZON-ArtSubs\nFormat                                   : AVI\nFormat/Info                              : Audio Video Interleave\nFormat profile                           : OpenDML\nFile size                                : 1.33 GiB\nDuration                                 : 1h 27mn\nOverall bit rate                         : 2 160 Kbps\nWriting application                      : Lavf52.94.0\n\nVideo\nID                                       : 0\nFormat                                   : MPEG-4 Visual\nFormat profile                           : Simple@L3\nFormat settings, BVOP                    : No\nFormat settings, QPel                    : No\nFormat settings, GMC                     : No warppoints\nFormat settings, Matrix                  : Default (H.263)\nCodec ID                                 : XVID\nCodec ID/Hint                            : XviD\nDuration                                 : 1h 27mn\nBit rate                                 : 1 923 Kbps\nWidth                                    : 1 280 pixels\nHeight                                   : 544 pixels\nDisplay aspect ratio                     : 2.35:1\nFrame rate                               : 24.000 fps\nColor space                              : YUV\nChroma subsampling                       : 4:2:0\nBit depth                                : 8 bits\nScan type                                : Progressive\nCompression mode                         : Lossy\nBits/(Pixel*Frame)                       : 0.115\nStream size                              : 1.18 GiB (89%)\nWriting library                          : XviD 1.2.1 (UTC 2008-12-04)\n\nAudio\nID                                       : 1\nFormat                                   : AC-3\nFormat/Info                              : Audio Coding 3\nMode extension                           : CM (complete main)\nFormat settings, Endianness              : Big\nCodec ID                                 : 2000\nDuration                                 : 1h 27mn\nBit rate mode                            : Constant\nBit rate                                 : 224 Kbps\nChannel(s)                               : 2 channels\nChannel positions                        : Front: L R\nSampling rate                            : 48.0 KHz\nBit depth                                : 16 bits\nCompression mode                         : Lossy\nStream size                              : 141 MiB (10%)\nAlignment                                : Aligned on interleaves\nInterleave, duration                     : 32 ms (0.77 video frame)\nInterleave, preload duration             : 32 ms\n\n","torrent":{"xt":"urn:btih:e4fb4f175d250446393241aacd80ef8e96358082","amp;dn":"Blondie.2012.BRRip.XviD.AC3.HORiZON-ArtSubs","amp;tr":["udp%3A%2F%2Ftracker.openbittorrent.com%3A80","udp%3A%2F%2Fopen.demonii.com%3A1337","udp%3A%2F%2Ftracker.coppersurfer.tk%3A6969","udp%3A%2F%2Fexodus.desync.com%3A6969"],"infoHash":"e4fb4f175d250446393241aacd80ef8e96358082","infoHashBuffer":{"type":"Buffer","data":[228,251,79,23,93,37,4,70,57,50,65,170,205,128,239,142,150,53,128,130]},"announce":[],"urlList":[]}}